Metropolis-BlackItalic.ufo
<glyph name="dollar" format="2">
	<advance width="723"/>
	<unicode hex="0024"/>
	<anchor x="454" y="687" name="top"/>
	<anchor x="314" y="0" name="bottom"/>
	<outline>
		<contour>
			<point x="438" y="759" type="line"/>
			<point x="265" y="-74" type="line"/>
			<point x="375" y="-74" type="line"/>
			<point x="548" y="759" type="line"/>
		</contour>
		<contour>
			<point x="330" y="-12" type="curve"/>
			<point x="330" y="-12" type="line"/>
			<point x="512" y="-12"/>
			<point x="656" y="87"/>
			<point x="656" y="240" type="curve"/>
			<point x="656" y="349"/>
			<point x="584" y="387"/>
			<point x="424" y="424" type="curve"/>
			<point x="349" y="441"/>
			<point x="325" y="446"/>
			<point x="325" y="471" type="curve"/>
			<point x="325" y="500"/>
			<point x="358" y="538"/>
			<point x="425" y="538" type="curve"/>
			<point x="469" y="538"/>
			<point x="539" y="522"/>
			<point x="596" y="473" type="curve"/>
			<point x="712" y="601" type="line"/>
			<point x="643" y="666"/>
			<point x="547" y="699"/>
			<point x="443" y="699" type="curve"/>
			<point x="253" y="699"/>
			<point x="127" y="589"/>
			<point x="127" y="448" type="curve"/>
			<point x="127" y="320"/>
			<point x="230" y="293"/>
			<point x="361" y="260" type="curve"/>
			<point x="440" y="240"/>
			<point x="459" y="238"/>
			<point x="459" y="216" type="curve"/>
			<point x="459" y="186"/>
			<point x="422" y="149"/>
			<point x="344" y="149" type="curve"/>
			<point x="281" y="149"/>
			<point x="206" y="173"/>
			<point x="148" y="228" type="curve"/>
			<point x="22" y="109" type="line"/>
			<point x="93" y="34"/>
			<point x="206" y="-12"/>
		</contour>
	</outline>
</glyph>
<glyph name="quotesingle" format="2">
	<advance width="291"/>
	<unicode hex="0027"/>
	<outline>
		<contour>
			<point x="134" y="370" type="curve"/>
			<point x="134" y="370" type="line"/>
			<point x="202" y="370" type="line"/>
			<point x="243" y="441"/>
			<point x="316" y="569"/>
			<point x="316" y="626" type="curve"/>
			<point x="316" y="671"/>
			<point x="284" y="705"/>
			<point x="238" y="705" type="curve"/>
			<point x="161" y="705"/>
			<point x="116" y="636"/>
			<point x="116" y="544" type="curve"/>
			<point x="116" y="492"/>
			<point x="125" y="429"/>
		</contour>
	</outline>
</glyph>
<glyph name="parenleft" format="2">
	<advance width="403"/>
	<unicode hex="0028"/>
	<outline>
		<contour>
			<point x="193" y="-166" type="curve"/>
			<point x="193" y="-166" type="line"/>
			<point x="302" y="-72" type="line"/>
			<point x="243" y="2"/>
			<point x="218" y="72"/>
			<point x="218" y="152" type="curve"/>
			<point x="218" y="322"/>
			<point x="303" y="470"/>
			<point x="447" y="593" type="curve"/>
			<point x="361" y="704" type="line"/>
			<point x="165" y="589"/>
			<point x="35" y="385"/>
			<point x="35" y="168" type="curve"/>
			<point x="35" y="28"/>
			<point x="93" y="-90"/>
		</contour>
	</outline>
</glyph>
<glyph name="parenright" format="2">
	<advance width="403"/>
	<unicode hex="0029"/>
	<outline>
		<contour>
			<point x="-41" y="-62" type="curve"/>
			<point x="45" y="-174" type="line"/>
			<point x="240" y="-59"/>
			<point x="371" y="144"/>
			<point x="371" y="364" type="curve"/>
			<point x="371" y="503"/>
			<point x="313" y="620"/>
			<point x="213" y="696" type="curve"/>
			<point x="104" y="603" type="line"/>
			<point x="162" y="529"/>
			<point x="188" y="459"/>
			<point x="188" y="379" type="curve"/>
			<point x="188" y="205"/>
			<point x="103" y="60"/>
		</contour>
	</outline>
</glyph>
<glyph name="plus" format="2">
	<advance width="601"/>
	<unicode hex="002B"/>
	<outline>
		<contour>
			<point x="82" y="408" type="line"/>
			<point x="51" y="259" type="line"/>
			<point x="550" y="259" type="line"/>
			<point x="581" y="408" type="line"/>
		</contour>
		<contour>
			<point x="289" y="583" type="line"/>
			<point x="185" y="84" type="line"/>
			<point x="345" y="84" type="line"/>
			<point x="449" y="583" type="line"/>
		</contour>
	</outline>
</glyph>
<glyph name="one" format="2">
	<advance width="491"/>
	<unicode hex="0031"/>
	<outline>
		<contour>
			<point x="259" y="469" type="line"/>
			<point x="160" y="0" type="line"/>
			<point x="354" y="0" type="line"/>
			<point x="497" y="687" type="line"/>
			<point x="341" y="687" type="line"/>
			<point x="81" y="533" type="line"/>
			<point x="132" y="399" type="line"/>
		</contour>
	</outline>
</glyph>
<glyph name="two" format="2">
	<advance width="660"/>
	<unicode hex="0032"/>
	<outline>
		<contour>
			<point x="31" y="157" type="line"/>
			<point x="1" y="0" type="line"/>
			<point x="550" y="0" type="line"/>
			<point x="586" y="173" type="line"/>
			<point x="335" y="173" type="line"/>
			<point x="440" y="226" type="line" smooth="yes"/>
			<point x="562" y="296"/>
			<point x="644" y="374"/>
			<point x="644" y="502" type="curve"/>
			<point x="644" y="617"/>
			<point x="553" y="699"/>
			<point x="404" y="699" type="curve"/>
			<point x="297" y="699"/>
			<point x="197" y="659"/>
			<point x="103" y="569" type="curve"/>
			<point x="206" y="437" type="line"/>
			<point x="268" y="490"/>
			<point x="322" y="523"/>
			<point x="388" y="523" type="curve"/>
			<point x="422" y="523"/>
			<point x="444" y="510"/>
			<point x="444" y="485" type="curve"/>
			<point x="444" y="432"/>
			<point x="385" y="385"/>
			<point x="322" y="345" type="curve"/>
		</contour>
	</outline>
</glyph>
<glyph name="seven" format="2">
	<advance width="618"/>
	<unicode hex="0037"/>
	<outline>
		<contour>
			<point x="407" y="514" type="line"/>
			<point x="40" y="0" type="line"/>
			<point x="263" y="0" type="line"/>
			<point x="640" y="541" type="line"/>
			<point x="668" y="687" type="line"/>
			<point x="126" y="687" type="line"/>
			<point x="90" y="514" type="line"/>
		</contour>
	</outline>
</glyph>
<glyph name="semicolon" format="2">
	<advance width="327"/>
	<unicode hex="003B"/>
	<outline>
		<contour>
			<point x="187" y="313" type="curve"/>
			<point x="187" y="313" type="line"/>
			<point x="251" y="313"/>
			<point x="312" y="371"/>
			<point x="312" y="441" type="curve"/>
			<point x="312" y="497"/>
			<point x="270" y="544"/>
			<point x="211" y="544" type="curve"/>
			<point x="144" y="544"/>
			<point x="82" y="490"/>
			<point x="82" y="418" type="curve"/>
			<point x="82" y="359"/>
			<point x="124" y="313"/>
		</contour>
		<contour>
			<point x="8" y="-102" type="curve"/>
			<point x="71" y="-160" type="line"/>
			<point x="161" y="-95"/>
			<point x="238" y="-6"/>
			<point x="238" y="98" type="curve"/>
			<point x="238" y="170"/>
			<point x="200" y="219"/>
			<point x="138" y="219" type="curve"/>
			<point x="75" y="219"/>
			<point x="13" y="159"/>
			<point x="13" y="90" type="curve"/>
			<point x="13" y="33"/>
			<point x="53" y="-5"/>
			<point x="104" y="-5" type="curve"/>
			<point x="82" y="-38"/>
			<point x="48" y="-75"/>
		</contour>
	</outline>
</glyph>
<glyph name="less" format="2">
	<advance width="603"/>
	<unicode hex="003C"/>
	<outline>
		<contour>
			<point x="55" y="267" type="line"/>
			<point x="490" y="78" type="line"/>
			<point x="520" y="229" type="line"/>
			<point x="214" y="343" type="line"/>
			<point x="570" y="459" type="line"/>
			<point x="599" y="609" type="line"/>
			<point x="85" y="420" type="line"/>
		</contour>
	</outline>
</glyph>
<glyph name="greater" format="2">
	<advance width="603"/>
	<unicode hex="003E"/>
	<outline>
		<contour>
			<point x="70" y="229" type="line"/>
			<point x="40" y="78" type="line"/>
			<point x="554" y="267" type="line"/>
			<point x="584" y="420" type="line"/>
			<point x="148" y="609" type="line"/>
			<point x="119" y="459" type="line"/>
			<point x="425" y="343" type="line"/>
		</contour>
	</outline>
</glyph>
<glyph name="E" format="2">
	<advance width="672"/>
	<unicode hex="0045"/>
	<anchor x="155" y="687" name="ae_upper"/>
	<anchor x="565" y="0" name="bottom"/>
	<anchor x="428" y="687" name="top"/>
	<outline>
		<contour>
			<point x="155" y="687" type="line"/>
			<point x="12" y="0" type="line"/>
			<point x="565" y="0" type="line"/>
			<point x="601" y="173" type="line"/>
			<point x="150" y="173" type="line"/>
			<point x="220" y="54" type="line"/>
			<point x="274" y="333" type="line"/>
			<point x="165" y="264" type="line"/>
			<point x="588" y="264" type="line"/>
			<point x="624" y="437" type="line"/>
			<point x="204" y="437" type="line"/>
			<point x="285" y="367" type="line"/>
			<point x="336" y="633" type="line"/>
			<point x="216" y="514" type="line"/>
			<point x="672" y="514" type="line"/>
			<point x="708" y="687" type="line"/>
		</contour>
	</outline>
</glyph>
<glyph name="F" format="2">
	<advance width="651"/>
	<unicode hex="0046"/>
	<outline>
		<contour>
			<point x="155" y="687" type="line"/>
			<point x="12" y="0" type="line"/>
			<point x="206" y="0" type="line"/>
			<point x="270" y="313" type="line"/>
			<point x="160" y="244" type="line"/>
			<point x="584" y="244" type="line"/>
			<point x="620" y="417" type="line"/>
			<point x="200" y="417" type="line"/>
			<point x="280" y="347" type="line"/>
			<point x="336" y="633" type="line"/>
			<point x="216" y="514" type="line"/>
			<point x="672" y="514" type="line"/>
			<point x="708" y="687" type="line"/>
		</contour>
	</outline>
</glyph>
<glyph name="M" format="2">
	<advance width="888"/>
	<unicode hex="004D"/>
	<outline>
		<contour>
			<point x="155" y="687" type="line"/>
			<point x="12" y="0" type="line"/>
			<point x="206" y="0" type="line"/>
			<point x="285" y="368" type="line"/>
			<point x="403" y="40" type="line"/>
			<point x="653" y="368" type="line"/>
			<point x="574" y="0" type="line"/>
			<point x="768" y="0" type="line"/>
			<point x="911" y="687" type="line"/>
			<point x="715" y="687" type="line"/>
			<point x="461" y="359" type="line"/>
			<point x="347" y="687" type="line"/>
		</contour>
	</outline>
</glyph>
<glyph name="R" format="2">
	<advance width="716"/>
	<unicode hex="0052"/>
	<anchor x="447" y="687" name="top"/>
	<anchor x="307" y="0" name="bottom"/>
	<outline>
		<contour>
			<point x="271" y="269" type="line"/>
			<point x="434" y="0" type="line"/>
			<point x="650" y="0" type="line"/>
			<point x="487" y="269" type="line"/>
		</contour>
		<contour>
			<point x="155" y="687" type="line"/>
			<point x="12" y="0" type="line"/>
			<point x="206" y="0" type="line"/>
			<point x="250" y="207" type="line"/>
			<point x="391" y="207" type="line" smooth="yes"/>
			<point x="563" y="207"/>
			<point x="700" y="324"/>
			<point x="700" y="487" type="curve"/>
			<point x="700" y="606"/>
			<point x="612" y="687"/>
			<point x="478" y="687" type="curve"/>
		</contour>
		<contour>
			<point x="399" y="383" type="curve"/>
			<point x="286" y="383" type="line"/>
			<point x="313" y="511" type="line"/>
			<point x="438" y="511" type="line" smooth="yes"/>
			<point x="479" y="511"/>
			<point x="502" y="496"/>
			<point x="502" y="471" type="curve"/>
			<point x="502" y="429"/>
			<point x="450" y="383"/>
		</contour>
	</outline>
</glyph>
<glyph name="Z" format="2">
	<advance width="674"/>
	<unicode hex="005A"/>
	<anchor x="427" y="687" name="top"/>
	<outline>
		<contour>
			<point x="12" y="145" type="line"/>
			<point x="-14" y="0" type="line"/>
			<point x="581" y="0" type="line"/>
			<point x="617" y="173" type="line"/>
			<point x="291" y="173" type="line"/>
			<point x="691" y="542" type="line"/>
			<point x="719" y="687" type="line"/>
			<point x="135" y="687" type="line"/>
			<point x="99" y="514" type="line"/>
			<point x="415" y="514" type="line"/>
		</contour>
	</outline>
</glyph>
<glyph name="bracketright" format="2">
	<advance width="423"/>
	<unicode hex="005D"/>
	<outline>
		<contour>
			<point x="-18" y="-39" type="line"/>
			<point x="-43" y="-160" type="line"/>
			<point x="252" y="-160" type="line"/>
			<point x="429" y="689" type="line"/>
			<point x="134" y="689" type="line"/>
			<point x="109" y="568" type="line"/>
			<point x="257" y="568" type="line"/>
			<point x="130" y="-39" type="line"/>
		</contour>
	</outline>
</glyph>
<glyph name="d" format="2">
	<advance width="683"/>
	<unicode hex="0064"/>
	<outline>
		<contour>
			<point x="216" y="-12" type="curve"/>
			<point x="216" y="-12" type="line"/>
			<point x="380" y="-12"/>
			<point x="498" y="148"/>
			<point x="498" y="319" type="curve"/>
			<point x="498" y="444"/>
			<point x="423" y="529"/>
			<point x="304" y="529" type="curve"/>
			<point x="138" y="529"/>
			<point x="18" y="369"/>
			<point x="18" y="200" type="curve"/>
			<point x="18" y="74"/>
			<point x="94" y="-12"/>
		</contour>
		<contour>
			<point x="286" y="148" type="curve"/>
			<point x="286" y="148" type="line"/>
			<point x="233" y="148"/>
			<point x="202" y="176"/>
			<point x="202" y="221" type="curve"/>
			<point x="202" y="298"/>
			<point x="273" y="369"/>
			<point x="357" y="369" type="curve"/>
			<point x="403" y="369"/>
			<point x="431" y="342"/>
			<point x="431" y="298" type="curve"/>
			<point x="431" y="226"/>
			<point x="366" y="148"/>
		</contour>
		<contour>
			<point x="517" y="699" type="line"/>
			<point x="372" y="0" type="line"/>
			<point x="565" y="0" type="line"/>
			<point x="710" y="699" type="line"/>
		</contour>
	</outline>
</glyph>
<glyph name="f" format="2">
	<advance width="403"/>
	<unicode hex="0066"/>
	<outline>
		<contour>
			<point x="149" y="553" type="curve"/>
			<point x="34" y="0" type="line"/>
			<point x="218" y="0" type="line"/>
			<point x="324" y="509" type="line" smooth="yes"/>
			<point x="330" y="535"/>
			<point x="354" y="570"/>
			<point x="399" y="570" type="curve"/>
			<point x="407" y="570"/>
			<point x="420" y="569"/>
			<point x="431" y="560" type="curve"/>
			<point x="477" y="662" type="line"/>
			<point x="450" y="693"/>
			<point x="401" y="720"/>
			<point x="342" y="720" type="curve"/>
			<point x="252" y="720"/>
			<point x="171" y="656"/>
		</contour>
		<contour>
			<point x="77" y="517" type="line"/>
			<point x="45" y="365" type="line"/>
			<point x="396" y="365" type="line"/>
			<point x="428" y="517" type="line"/>
		</contour>
	</outline>
</glyph>
<glyph name="h" format="2">
	<advance width="634"/>
	<unicode hex="0068"/>
	<outline>
		<contour>
			<point x="155" y="699" type="line"/>
			<point x="10" y="0" type="line"/>
			<point x="203" y="0" type="line"/>
			<point x="348" y="699" type="line"/>
		</contour>
		<contour>
			<point x="352" y="0" type="curve"/>
			<point x="352" y="0" type="line"/>
			<point x="536" y="0" type="line"/>
			<point x="600" y="305"/>
			<point x="608" y="331"/>
			<point x="608" y="369" type="curve"/>
			<point x="608" y="462"/>
			<point x="545" y="529"/>
			<point x="444" y="529" type="curve"/>
			<point x="351" y="529"/>
			<point x="272" y="475"/>
			<point x="249" y="387" type="curve"/>
			<point x="261" y="282" type="line"/>
			<point x="269" y="328"/>
			<point x="314" y="369"/>
			<point x="364" y="369" type="curve"/>
			<point x="396" y="369"/>
			<point x="416" y="351"/>
			<point x="416" y="317" type="curve"/>
			<point x="416" y="302"/>
			<point x="413" y="289"/>
		</contour>
	</outline>
</glyph>
<glyph name="k" format="2">
	<advance width="616"/>
	<unicode hex="006B"/>
	<anchor x="271" y="0" name="bottom"/>
	<outline>
		<contour>
			<point x="155" y="699" type="line"/>
			<point x="10" y="0" type="line"/>
			<point x="203" y="0" type="line"/>
			<point x="228" y="120" type="line"/>
			<point x="282" y="171" type="line"/>
			<point x="339" y="0" type="line"/>
			<point x="550" y="0" type="line"/>
			<point x="429" y="294" type="line"/>
			<point x="658" y="517" type="line"/>
			<point x="438" y="517" type="line"/>
			<point x="274" y="343" type="line"/>
			<point x="348" y="699" type="line"/>
		</contour>
	</outline>
</glyph>
<glyph name="l" format="2">
	<advance width="321"/>
	<unicode hex="006C"/>
	<anchor x="250" y="699" name="top"/>
	<anchor x="163" y="0" name="bottom"/>
	<outline>
		<contour>
			<point x="155" y="699" type="line"/>
			<point x="10" y="0" type="line"/>
			<point x="203" y="0" type="line"/>
			<point x="348" y="699" type="line"/>
		</contour>
	</outline>
</glyph>
<glyph name="o" format="2">
	<advance width="626"/>
	<unicode hex="006F"/>
	<anchor x="363" y="517" name="top"/>
	<outline>
		<contour>
			<point x="269" y="-12" type="curve"/>
			<point x="269" y="-12" type="line"/>
			<point x="456" y="-12"/>
			<point x="609" y="127"/>
			<point x="609" y="296" type="curve"/>
			<point x="609" y="434"/>
			<point x="506" y="529"/>
			<point x="357" y="529" type="curve"/>
			<point x="170" y="529"/>
			<point x="17" y="391"/>
			<point x="17" y="222" type="curve"/>
			<point x="17" y="83"/>
			<point x="120" y="-12"/>
		</contour>
		<contour>
			<point x="278" y="148" type="curve"/>
			<point x="278" y="148" type="line"/>
			<point x="231" y="148"/>
			<point x="199" y="179"/>
			<point x="199" y="225" type="curve"/>
			<point x="199" y="304"/>
			<point x="266" y="369"/>
			<point x="349" y="369" type="curve"/>
			<point x="395" y="369"/>
			<point x="427" y="338"/>
			<point x="427" y="293" type="curve"/>
			<point x="427" y="213"/>
			<point x="360" y="148"/>
		</contour>
	</outline>
</glyph>
<glyph name="cedilla" format="2">
	<advance width="247"/>
	<unicode hex="00B8"/>
	<anchor x="72" y="0" name="_bottom"/>
	<outline>
		<contour>
			<point x="29" y="-200" type="curve"/>
			<point x="29" y="-200" type="line"/>
			<point x="97" y="-200"/>
			<point x="149" y="-169"/>
			<point x="149" y="-109" type="curve"/>
			<point x="149" y="-70"/>
			<point x="119" y="-42"/>
			<point x="74" y="-42" type="curve"/>
			<point x="60" y="-42"/>
			<point x="20" y="-46"/>
			<point x="-4" y="-58" type="curve"/>
			<point x="82" y="-62" type="line"/>
			<point x="128" y="11" type="line"/>
			<point x="35" y="11" type="line"/>
			<point x="-9" y="-62" type="line"/>
			<point x="17" y="-91" type="line"/>
			<point x="28" y="-83"/>
			<point x="42" y="-78"/>
			<point x="53" y="-78" type="curve"/>
			<point x="62" y="-78"/>
			<point x="67" y="-84"/>
			<point x="67" y="-93" type="curve"/>
			<point x="67" y="-112"/>
			<point x="43" y="-125"/>
			<point x="10" y="-125" type="curve"/>
			<point x="-4" y="-125"/>
			<point x="-22" y="-121"/>
			<point x="-37" y="-107" type="curve"/>
			<point x="-72" y="-166" type="line"/>
			<point x="-50" y="-183"/>
			<point x="-15" y="-200"/>
		</contour>
	</outline>
</glyph>
<glyph name="germandbls" format="2">
	<advance width="650"/>
	<unicode hex="00DF"/>
	<outline>
		<contour>
			<point x="117" y="522" type="curve"/>
			<point x="8" y="0" type="line"/>
			<point x="201" y="0" type="line"/>
			<point x="296" y="455" type="line" smooth="yes"/>
			<point x="304" y="494"/>
			<point x="347" y="524"/>
			<point x="393" y="524" type="curve"/>
			<point x="427" y="524"/>
			<point x="443" y="512"/>
			<point x="443" y="493" type="curve"/>
			<point x="443" y="460"/>
			<point x="398" y="420"/>
			<point x="353" y="420" type="curve"/>
			<point x="358" y="420" type="line"/>
			<point x="327" y="273" type="line"/>
			<point x="363" y="273" type="line" smooth="yes"/>
			<point x="405" y="273"/>
			<point x="426" y="258"/>
			<point x="421" y="233" type="curve"/>
			<point x="413" y="194"/>
			<point x="370" y="163"/>
			<point x="328" y="163" type="curve"/>
			<point x="304" y="163" type="line"/>
			<point x="270" y="0" type="line"/>
			<point x="339" y="0" type="line" smooth="yes"/>
			<point x="483" y="0"/>
			<point x="612" y="76"/>
			<point x="612" y="209" type="curve"/>
			<point x="612" y="274"/>
			<point x="576" y="328"/>
			<point x="519" y="354" type="curve"/>
			<point x="601" y="390"/>
			<point x="649" y="459"/>
			<point x="649" y="542" type="curve"/>
			<point x="649" y="649"/>
			<point x="557" y="724"/>
			<point x="413" y="724" type="curve"/>
			<point x="263" y="724"/>
			<point x="143" y="645"/>
		</contour>
	</outline>
</glyph>
<glyph name="lslash" format="2">
	<advance width="388"/>
	<unicode hex="0142"/>
	<outline>
		<contour>
			<point x="35" y="345" type="line"/>
			<point x="3" y="178" type="line"/>
			<point x="386" y="350" type="line"/>
			<point x="419" y="517" type="line"/>
		</contour>
		<contour>
			<point x="192" y="699" type="line"/>
			<point x="47" y="0" type="line"/>
			<point x="240" y="0" type="line"/>
			<point x="385" y="699" type="line"/>
		</contour>
	</outline>
</glyph>
<glyph name="dotaccent" format="2">
	<advance width="215"/>
	<unicode hex="02D9"/>
	<anchor x="201" y="704" name="top"/>
	<anchor x="54" y="0" name="bottom"/>
	<anchor x="162" y="517" name="_top"/>
	<outline>
		<contour>
			<point x="187" y="575" type="curve"/>
			<point x="187" y="575" type="line"/>
			<point x="233" y="575"/>
			<point x="277" y="614"/>
			<point x="277" y="666" type="curve"/>
			<point x="277" y="711"/>
			<point x="244" y="748"/>
			<point x="198" y="748" type="curve"/>
			<point x="150" y="748"/>
			<point x="106" y="710"/>
			<point x="106" y="656" type="curve"/>
			<point x="106" y="611"/>
			<point x="137" y="575"/>
		</contour>
	</outline>
</glyph>
<glyph name="dotaccentcomb" format="2">
	<advance width="0"/>
	<unicode hex="0307"/>
	<guideline x="206" y="668" angle="78.2"/>
	<anchor x="-65" y="517" name="_top"/>
	<outline>
		<contour>
			<point x="-40" y="573" type="curve"/>
			<point x="-40" y="573" type="line"/>
			<point x="15" y="573"/>
			<point x="65" y="623"/>
			<point x="65" y="680" type="curve"/>
			<point x="65" y="730"/>
			<point x="28" y="771"/>
			<point x="-24" y="771" type="curve"/>
			<point x="-79" y="771"/>
			<point x="-132" y="724"/>
			<point x="-132" y="664" type="curve"/>
			<point x="-132" y="614"/>
			<point x="-94" y="573"/>
		</contour>
	</outline>
</glyph>
<glyph name="guilsinglleft" format="2">
	<advance width="375"/>
	<unicode hex="2039"/>
	<outline>
		<contour>
			<point x="26" y="256" type="line"/>
			<point x="152" y="48" type="line"/>
			<point x="296" y="79" type="line"/>
			<point x="196" y="256" type="line"/>
			<point x="373" y="432" type="line"/>
			<point x="233" y="462" type="line"/>
		</contour>
	</outline>
</glyph>
<glyph name="lowercase_r_shoulder" format="2">
	<advance width="271"/>
	<anchor x="59" y="211" name="_r_shoulder"/>
	<outline>
		<contour>
			<point x="42" y="287" type="curve"/>
			<point x="59" y="211" type="line"/>
			<point x="79" y="305"/>
			<point x="158" y="369"/>
			<point x="260" y="369" type="curve"/>
			<point x="281" y="529" type="line"/>
			<point x="167" y="529"/>
			<point x="72" y="433"/>
		</contour>
	</outline>
</glyph>
